<?xml version="1.0" encoding="utf-8"?>
<!-- Generator: Adobe Illustrator 16.0.4, SVG Export Plug-In . SVG Version: 6.00 Build 0)  -->
<!DOCTYPE svg PUBLIC "-//W3C//DTD SVG 1.1//EN" "http://www.w3.org/Graphics/SVG/1.1/DTD/svg11.dtd">
<svg version="1.1" id="Layer_1" xmlns="http://www.w3.org/2000/svg" xmlns:xlink="http://www.w3.org/1999/xlink" x="0px" y="0px"
	 width="53.999px" height="58.186px" viewBox="506.5 212.44 53.999 58.186" enable-background="new 506.5 212.44 53.999 58.186"
	 xml:space="preserve">
<path fill="#FFFFFF" d="M546.036,237.306l-12.043-7.911c-0.334-0.219-0.767-0.218-1.1,0.001l-11.942,7.876
	c-0.461,0.304-0.588,0.924-0.285,1.385c0.305,0.461,0.926,0.589,1.385,0.285l11.395-7.514l11.494,7.55
	c0.169,0.111,0.358,0.164,0.548,0.164c0.325,0,0.645-0.159,0.837-0.451C546.626,238.229,546.498,237.609,546.036,237.306z"/>
<path fill="#FFFFFF" d="M555.899,270.626h-44.8c-2.537,0-4.6-2.063-4.6-4.601V217.04c0-2.536,2.062-4.6,4.6-4.6h44.8
	c2.536,0,4.6,2.063,4.6,4.6v48.985C560.499,268.562,558.436,270.626,555.899,270.626z M511.1,214.44c-1.434,0-2.6,1.166-2.6,2.6
	v48.985c0,1.434,1.167,2.601,2.6,2.601h44.8c1.434,0,2.6-1.167,2.6-2.601V217.04c0-1.434-1.167-2.6-2.6-2.6H511.1z"/>
</svg>
