<?xml version="1.0" encoding="utf-8"?>
<!-- Generator: Adobe Illustrator 16.0.4, SVG Export Plug-In . SVG Version: 6.00 Build 0)  -->
<!DOCTYPE svg PUBLIC "-//W3C//DTD SVG 1.1//EN" "http://www.w3.org/Graphics/SVG/1.1/DTD/svg11.dtd">
<svg version="1.1" id="Layer_1" xmlns="http://www.w3.org/2000/svg" xmlns:xlink="http://www.w3.org/1999/xlink" x="0px" y="0px"
	 width="753.38px" height="677.837px" viewBox="1423.311 1049.081 753.38 677.837"
	 enable-background="new 1423.311 1049.081 753.38 677.837" xml:space="preserve">
<g id="folder_1_">
	<path fill="#FFFFFF" d="M2108.137,1104.271h-486.132v13.361c0-37.863-30.688-68.552-68.552-68.552h-61.59
		c-37.864,0-68.553,30.688-68.553,68.552v68.646v472.087c0,37.866,30.688,68.552,68.553,68.552h616.275
		c37.863,0,68.552-30.688,68.552-68.552v-485.542C2176.689,1134.96,2146.001,1104.271,2108.137,1104.271z M2149.27,1658.366
		c0,22.681-18.45,41.132-41.133,41.132h-616.274c-22.682,0-41.132-18.45-41.132-41.132v-351.705v-89.627h698.537v441.332H2149.27z
		 M2149.27,1189.614h-698.537v-71.98c0-22.681,18.449-41.131,41.131-41.131h61.59c22.681,0,41.131,18.45,41.131,41.131v13.71
		l513.553,0.349c22.682,0,41.133,18.449,41.133,41.131V1189.614z"/>
</g>
</svg>
