<?xml version="1.0" encoding="utf-8"?>
<!-- Generator: Adobe Illustrator 16.0.4, SVG Export Plug-In . SVG Version: 6.00 Build 0)  -->
<!DOCTYPE svg PUBLIC "-//W3C//DTD SVG 1.1//EN" "http://www.w3.org/Graphics/SVG/1.1/DTD/svg11.dtd">
<svg version="1.1" id="Layer_1" xmlns="http://www.w3.org/2000/svg" xmlns:xlink="http://www.w3.org/1999/xlink" x="0px" y="0px"
	 width="424.418px" height="68.049px" viewBox="32.075 96.46 424.418 68.049" enable-background="new 32.075 96.46 424.418 68.049"
	 xml:space="preserve">
<g>
	<g>
		<path fill="#FFFFFF" d="M166.508,130.755l-0.582-9.409h2.085c1.358,2.571,2.28,4.171,3.588,5.82
			c1.261,1.552,2.668,2.473,5.384,2.473c3.541,0,6.014-2.279,6.014-4.849c0-2.667-1.601-4.413-7.517-6.692
			c-7.081-2.668-9.263-5.723-9.263-10.621c0-5.868,4.898-10.039,12.221-10.039c4.123,0,6.742,0.34,8.681,0.97l0.583,8.439h-2.086
			c-1.31-2.522-1.891-3.637-3.298-5.189c-0.97-1.067-2.182-1.649-4.413-1.649c-3.298,0-5.577,1.988-5.577,4.607
			c0,2.28,1.067,3.541,6.79,5.723c7.711,2.909,10.573,5.82,10.573,10.62c0,6.208-4.607,11.252-12.997,11.252
			C172.086,132.21,168.691,131.435,166.508,130.755z"/>
		<path fill="#FFFFFF" d="M194.251,129.688l1.31-0.34c1.455-0.387,2.037-0.824,3.395-4.268l9.991-27.062h4.947l10.378,27.256
			c1.31,3.347,1.94,3.734,3.298,4.171l1.164,0.242v1.94h-15.859v-1.94l1.358-0.34c1.31-0.34,1.794-0.727,1.794-1.648
			c0-0.825-0.388-1.746-0.873-3.152l-1.116-3.055h-10.524l-1.066,3.055c-0.437,1.357-0.776,2.134-0.776,2.958
			c0,1.165,0.63,1.456,2.134,1.843l1.407,0.34v1.94h-10.961L194.251,129.688L194.251,129.688z M204.435,118.825h8.681l-4.268-11.979
			h-0.242L204.435,118.825z"/>
		<path fill="#FFFFFF" d="M234.168,129.688l1.697-0.34c1.503-0.34,1.94-0.582,1.94-3.491V103.79c0-2.959-0.437-3.152-1.94-3.492
			l-1.697-0.388v-1.891h16.15c9.699,0,13.773,3.007,13.773,8.876c0,4.074-2.23,6.935-6.79,8.244v0.194
			c2.134,4.268,5.044,9.264,7.663,12.901c0.533,0.728,0.873,0.728,2.425,1.212l0.921,0.242v1.94h-10.573
			c-2.91-3.783-6.063-9.748-8.002-14.307c-0.388,0-3.152-0.049-3.395-0.049v8.585c0,2.909,0.485,3.152,1.988,3.491l1.794,0.34v1.94
			h-15.955L234.168,129.688L234.168,129.688z M255.264,107.525c0-5.626-1.358-6.935-5.335-6.935c-1.649,0-2.958,0.194-3.588,0.34
			v13.628c0.242,0.049,1.309,0.194,2.521,0.194C253.324,114.751,255.264,112.908,255.264,107.525z"/>
		<path fill="#FFFFFF" d="M271.416,129.688l1.31-0.34c1.455-0.387,2.037-0.824,3.395-4.268l9.991-27.062h4.947l10.378,27.256
			c1.31,3.347,1.939,3.734,3.299,4.171l1.164,0.242v1.94h-15.859v-1.94l1.358-0.34c1.31-0.34,1.794-0.727,1.794-1.648
			c0-0.825-0.388-1.746-0.873-3.152l-1.116-3.055H280.68l-1.066,3.055c-0.437,1.357-0.776,2.134-0.776,2.958
			c0,1.165,0.63,1.456,2.134,1.843l1.407,0.34v1.94h-10.961v-1.94H271.416z M281.6,118.825h8.681l-4.268-11.979h-0.242
			L281.6,118.825z"/>
		<path fill="#FFFFFF" d="M314.727,129.688l1.892-0.34c1.794-0.387,2.085-0.582,2.085-3.491V100.59
			c-3.152,0-4.074,0.242-5.384,2.134c-1.212,1.649-1.844,3.589-3.249,6.838h-2.183l0.485-11.543h29.293l0.485,11.543h-2.183
			c-1.31-3.249-1.988-5.189-3.2-6.838c-1.456-1.988-2.135-2.134-5.384-2.134v25.268c0,2.909,0.194,3.104,2.037,3.491l1.892,0.34
			v1.94h-16.586L314.727,129.688L314.727,129.688z"/>
		<path fill="#FFFFFF" d="M344.554,115.236c0-12.755,8.924-17.799,16.927-17.799c8.632,0,16.586,5.093,16.586,17.071
			c0,12.804-8.924,17.702-16.926,17.702C352.46,132.21,344.554,126.827,344.554,115.236z M368.998,115.527
			c0-11.106-2.037-15.471-7.808-15.471c-5.045,0-7.566,2.813-7.566,14.161c0,11.009,1.94,15.374,7.76,15.374
			C366.621,129.592,368.998,126.875,368.998,115.527z"/>
		<path fill="#FFFFFF" d="M385.197,114.994c0-12.659,8.681-17.557,18.865-17.557c4.122,0,7.274,0.485,9.457,1.116l0.631,10.136
			h-2.183c-1.357-3.055-2.618-4.849-3.733-6.45c-1.164-1.746-1.844-2.182-5.044-2.182c-6.208,0-8.924,3.783-8.924,14.064
			c0,11.737,2.085,15.472,8.487,15.472c1.794,0,3.104-0.388,4.074-0.921v-6.742c0-2.958-0.388-3.104-1.94-3.443l-1.794-0.436v-1.891
			h14.938v1.891l-1.311,0.34c-1.357,0.387-1.601,0.582-1.601,3.54v8.294c-2.862,1.018-7.953,1.988-12.125,1.988
			C391.405,132.21,385.197,126.245,385.197,114.994z"/>
		<path fill="#FFFFFF" d="M422.01,129.688l1.311-0.34c1.455-0.387,2.037-0.824,3.395-4.268l9.991-27.062h4.947l10.378,27.256
			c1.31,3.347,1.939,3.734,3.298,4.171l1.164,0.242v1.94h-15.859v-1.94l1.358-0.34c1.31-0.34,1.794-0.727,1.794-1.648
			c0-0.825-0.388-1.746-0.873-3.152l-1.116-3.055h-10.523l-1.066,3.055c-0.438,1.357-0.776,2.134-0.776,2.958
			c0,1.165,0.63,1.456,2.135,1.843l1.406,0.34v1.94H422.01V129.688z M432.194,118.825h8.681l-4.268-11.979h-0.242L432.194,118.825z"
			/>
	</g>
	<g>
		<path fill="#FFFFFF" d="M164.908,155.132c0-4.449,2.881-6.204,6.221-6.204c1.347,0,2.54,0.188,3.289,0.409l0.188,3.459h-0.699
			c-0.459-0.972-0.835-1.824-1.261-2.386c-0.443-0.563-0.75-0.631-1.721-0.631c-2.233,0-3.204,1.244-3.204,5.028
			c0,4.312,1.006,5.488,3.119,5.488c1.244,0,1.602-0.341,2.097-0.989c0.46-0.682,0.715-1.159,1.108-2.147h0.647l-0.187,3.272
			c-0.802,0.341-2.147,0.716-3.647,0.716C167.345,161.148,164.908,159.257,164.908,155.132z"/>
		<path fill="#FFFFFF" d="M177.95,160.313l0.46-0.119c0.511-0.137,0.716-0.273,1.176-1.518l3.51-9.544h1.5l3.63,9.646
			c0.46,1.176,0.682,1.295,1.142,1.432l0.426,0.102v0.63h-5.147v-0.63l0.477-0.119c0.478-0.12,0.631-0.239,0.631-0.546
			c0-0.29-0.137-0.614-0.307-1.091l-0.477-1.312h-3.784l-0.444,1.329c-0.17,0.478-0.272,0.733-0.272,0.988
			c0,0.409,0.221,0.511,0.716,0.631l0.528,0.119v0.63h-3.767v-0.628H177.95z M181.495,156.359h3.17l-1.569-4.414h-0.085
			L181.495,156.359z"/>
		<path fill="#FFFFFF" d="M192.952,160.313l0.648-0.137c0.494-0.085,0.647-0.187,0.647-1.159v-7.959
			c0-0.989-0.136-1.057-0.528-1.142l-0.767-0.171v-0.613h5.403c3.051,0,4.653,1.227,4.653,3.528c0,2.028-1.5,3.766-3.716,3.766
			c-0.75,0-1.21-0.17-1.38-0.256v-0.596c1.636,0.017,2.386-0.529,2.386-2.779c0-2.079-0.58-2.812-2.114-2.812
			c-0.546,0-1.074,0.068-1.279,0.119v8.914c0,0.954,0.069,1.04,0.648,1.142l0.852,0.153v0.63h-5.454L192.952,160.313
			L192.952,160.313z"/>
		<path fill="#FFFFFF" d="M206.521,160.313l0.716-0.137c0.511-0.085,0.647-0.187,0.647-1.159v-7.959c0-0.989-0.136-1.074-0.647-1.16
			l-0.716-0.153v-0.613h5.386v0.613l-0.733,0.153c-0.528,0.102-0.648,0.171-0.648,1.16v7.959c0,0.972,0.12,1.056,0.648,1.159
			l0.733,0.137v0.63h-5.386V160.313z"/>
		<path fill="#FFFFFF" d="M217.755,160.313l0.734-0.137c0.545-0.102,0.647-0.187,0.647-1.159v-9.05
			c-1.347,0-1.619,0.051-2.096,0.801c-0.409,0.597-0.597,1.193-1.023,2.284h-0.733l0.17-3.92h10.038l0.171,3.92h-0.733
			c-0.409-1.091-0.614-1.687-1.023-2.284c-0.495-0.767-0.733-0.801-2.096-0.801h-0.018v9.05c0,0.972,0.086,1.056,0.665,1.159
			l0.733,0.137v0.63h-5.437L217.755,160.313L217.755,160.313z"/>
		<path fill="#FFFFFF" d="M227.541,160.313l0.46-0.119c0.511-0.137,0.716-0.273,1.176-1.518l3.51-9.544h1.5l3.63,9.646
			c0.46,1.176,0.682,1.295,1.142,1.432l0.426,0.102v0.63h-5.147v-0.63l0.477-0.119c0.478-0.12,0.631-0.239,0.631-0.546
			c0-0.29-0.137-0.614-0.307-1.091l-0.477-1.312h-3.784l-0.444,1.329c-0.17,0.478-0.272,0.733-0.272,0.988
			c0,0.409,0.221,0.511,0.716,0.631l0.528,0.119v0.63h-3.767v-0.628H227.541z M231.087,156.359h3.17l-1.569-4.414h-0.085
			L231.087,156.359z"/>
		<path fill="#FFFFFF" d="M242.543,160.313l0.648-0.137c0.494-0.085,0.647-0.187,0.647-1.159v-7.959c0-0.989-0.153-1.057-0.647-1.16
			l-0.648-0.153v-0.613h5.369v0.613l-0.785,0.153c-0.511,0.102-0.63,0.171-0.63,1.16v7.431c0,1.5,0.051,1.602,1.67,1.602
			c1.466,0,1.807-0.205,2.301-0.955c0.324-0.477,0.716-1.056,1.142-2.249h0.733l-0.272,4.056h-9.528V160.313L242.543,160.313z"/>
		<path fill="#FFFFFF" d="M262.778,160.313l0.648-0.137c0.494-0.085,0.647-0.187,0.647-1.159v-7.959
			c0-0.989-0.137-1.057-0.528-1.142l-0.767-0.171v-0.613h5.403c3.051,0,4.653,1.227,4.653,3.528c0,2.028-1.5,3.766-3.716,3.766
			c-0.75,0-1.21-0.17-1.38-0.256v-0.596c1.636,0.017,2.386-0.529,2.386-2.779c0-2.079-0.58-2.812-2.114-2.812
			c-0.546,0-1.074,0.068-1.279,0.119v8.914c0,0.954,0.069,1.04,0.648,1.142l0.852,0.153v0.63h-5.454L262.778,160.313
			L262.778,160.313z"/>
		<path fill="#FFFFFF" d="M274.832,160.313l0.46-0.119c0.511-0.137,0.716-0.273,1.176-1.518l3.51-9.544h1.5l3.63,9.646
			c0.46,1.176,0.682,1.295,1.142,1.432l0.426,0.102v0.63h-5.147v-0.63l0.477-0.119c0.478-0.12,0.631-0.239,0.631-0.546
			c0-0.29-0.137-0.614-0.307-1.091l-0.477-1.312h-3.784l-0.444,1.329c-0.17,0.478-0.272,0.733-0.272,0.988
			c0,0.409,0.221,0.511,0.716,0.631l0.528,0.119v0.63h-3.767v-0.628H274.832z M278.377,156.359h3.17l-1.569-4.414h-0.085
			L278.377,156.359z"/>
		<path fill="#FFFFFF" d="M289.834,160.313l0.648-0.137c0.494-0.085,0.647-0.187,0.647-1.159v-7.959c0-0.989-0.153-1.057-0.647-1.16
			l-0.648-0.153v-0.613h5.437c3.187,0,4.55,1.04,4.55,3.068c0,1.398-0.817,2.454-2.488,2.931v0.051
			c0.801,1.534,1.892,3.34,2.829,4.602c0.188,0.256,0.324,0.272,0.869,0.443l0.324,0.086v0.63h-3.324
			c-1.108-1.432-2.233-3.46-3-5.13c-0.085,0-1.244-0.017-1.295-0.017v3.221c0,0.972,0.137,1.056,0.665,1.159l0.699,0.137v0.63
			h-5.267L289.834,160.313L289.834,160.313z M297.129,152.422c0-2.011-0.563-2.437-2.028-2.437c-0.614,0-1.125,0.051-1.364,0.119
			v4.79c0.051,0,0.478,0.05,0.937,0.05C296.396,154.944,297.129,154.28,297.129,152.422z"/>
		<path fill="#FFFFFF" d="M306.369,160.313l0.733-0.137c0.546-0.102,0.647-0.187,0.647-1.159v-9.05
			c-1.346,0-1.619,0.051-2.096,0.801c-0.409,0.597-0.598,1.193-1.023,2.284h-0.732l0.17-3.92h10.038l0.171,3.92h-0.733
			c-0.409-1.091-0.614-1.687-1.023-2.284c-0.494-0.767-0.732-0.801-2.096-0.801h-0.018v9.05c0,0.972,0.086,1.056,0.665,1.159
			l0.732,0.137v0.63h-5.437L306.369,160.313L306.369,160.313z"/>
		<path fill="#FFFFFF" d="M320.076,150.99h-0.068v7.807c0,1.193,0.137,1.278,0.802,1.398l0.647,0.119v0.63h-3.784v-0.63l0.546-0.119
			c0.545-0.102,0.75-0.205,0.75-1.347v-7.789c0-0.989-0.152-1.057-0.646-1.16l-0.648-0.153v-0.613h4.278l4.856,7.499h0.068v-5.368
			c0-1.176-0.119-1.262-0.801-1.381l-0.716-0.137v-0.613h3.852v0.613l-0.562,0.12c-0.528,0.119-0.733,0.205-0.733,1.363v9.749
			h-1.261L320.076,150.99z"/>
		<path fill="#FFFFFF" d="M332.64,160.313l0.648-0.137c0.494-0.102,0.646-0.187,0.646-1.159v-7.959c0-0.989-0.152-1.057-0.646-1.16
			l-0.648-0.153v-0.613h9.442l0.205,3.272h-0.699c-0.408-0.904-0.682-1.398-0.937-1.722c-0.528-0.698-0.887-0.698-2.233-0.698
			c-1.056,0-1.517,0.086-1.824,0.17v4.21h0.46c1.279,0,1.638-0.085,1.875-0.494c0.223-0.409,0.358-0.63,0.495-1.176h0.682v4.278
			h-0.682c-0.153-0.546-0.271-0.734-0.495-1.211c-0.237-0.46-0.494-0.511-1.875-0.511h-0.46v3.188c0,1.636,0.051,1.653,1.978,1.653
			c1.5,0,1.772-0.069,2.301-0.767c0.324-0.426,0.682-1.21,1.107-2.249h0.717l-0.257,3.868h-9.8V160.313L332.64,160.313z"/>
		<path fill="#FFFFFF" d="M346.245,160.313l0.647-0.137c0.494-0.085,0.647-0.187,0.647-1.159v-7.959c0-0.989-0.153-1.057-0.647-1.16
			l-0.647-0.153v-0.613h5.437c3.188,0,4.551,1.04,4.551,3.068c0,1.398-0.817,2.454-2.488,2.931v0.051
			c0.801,1.534,1.892,3.34,2.829,4.602c0.188,0.256,0.324,0.272,0.869,0.443l0.323,0.086v0.63h-3.323
			c-1.108-1.432-2.233-3.46-3-5.13c-0.085,0-1.244-0.017-1.296-0.017v3.221c0,0.972,0.138,1.056,0.665,1.159l0.699,0.137v0.63
			h-5.267L346.245,160.313L346.245,160.313z M353.54,152.422c0-2.011-0.563-2.437-2.028-2.437c-0.613,0-1.125,0.051-1.363,0.119
			v4.79c0.051,0,0.478,0.05,0.937,0.05C352.807,154.944,353.54,154.28,353.54,152.422z"/>
		<path fill="#FFFFFF" d="M361.076,160.637l-0.188-3.271h0.683c0.426,0.886,0.732,1.449,1.192,2.045
			c0.443,0.58,0.92,0.869,1.943,0.869c1.347,0,2.216-0.835,2.216-1.807c0-0.989-0.631-1.619-2.727-2.454
			c-2.335-0.937-3.188-1.943-3.188-3.682c0-1.977,1.653-3.426,4.124-3.426c1.414,0,2.335,0.137,2.983,0.341l0.221,2.931h-0.716
			c-0.426-0.903-0.596-1.244-1.056-1.772c-0.342-0.392-0.733-0.614-1.586-0.614c-1.192,0-2.062,0.716-2.062,1.705
			c0,0.869,0.408,1.312,2.403,2.114c2.658,1.074,3.682,2.062,3.682,3.682c0,2.13-1.551,3.869-4.432,3.869
			C363.019,161.165,361.843,160.893,361.076,160.637z"/>
	</g>
</g>
<path fill="#FFFFFF" d="M142.28,112.108c-0.062-0.424-0.291-0.72-0.458-0.938c-0.18-0.239-0.223-0.314-0.209-0.44l-0.232-0.612
	c-0.351-0.3-0.74-0.442-1.093-0.565c-0.205-0.073-0.404-0.144-0.546-0.237c-0.376-0.251-0.665-0.658-0.966-1.097
	c-0.2-0.292-0.405-0.578-0.635-0.843c-0.282-0.324-0.626-0.54-0.929-0.737c-0.184-0.114-0.366-0.223-0.516-0.358
	c-0.321-0.294-0.608-0.608-0.884-0.913c-0.342-0.383-0.69-0.77-1.095-1.102c-0.121-0.38-0.305-0.678-0.469-0.947
	c-0.146-0.238-0.271-0.438-0.343-0.684l-0.351-0.417c-0.438-0.228-0.761-0.453-1.091-0.686c-0.234-0.159-0.469-0.328-0.735-0.487
	c-0.491-0.299-0.948-0.421-1.389-0.537c-0.29-0.075-0.586-0.152-0.906-0.298c-0.312-0.146-0.476-0.404-0.748-0.854
	c-0.202-0.334-0.437-0.717-0.796-1.07c-0.482-0.472-2.077-1.806-3.04-1.826l-0.617,0.346c-0.343,0.587-0.155,1.218-0.009,1.721
	c0.075,0.251,0.148,0.487,0.169,0.715c-0.321,0.212-0.684,0.396-1.016,0.546c-0.925-0.432-2.204-0.924-3.585-0.924
	c-0.002,0-0.006,0-0.009,0c-1.669,0.05-2.728,0.756-3.661,1.385c-0.617,0.405-1.195,0.792-1.908,0.974
	c-0.649,0.164-1.421,0.194-2.232,0.223c-0.107,0-0.218-0.009-0.337-0.023c-0.683-0.073-1.401-0.007-1.908,0.389l0.006,0.726
	c-0.469,0.078-0.931,0.146-1.364,0.183c-0.066,0-0.143-0.014-0.218-0.025c-0.784-0.124-1.46,0.147-1.608,0.845l0.091,0.252
	c-0.373,0.103-0.724,0.232-1.031,0.426l0.196,0.99l-0.1,0.012c-0.403,0.052-0.797,0.1-1.189,0.227
	c-0.084,0.029-0.175,0.046-0.264,0.069c-0.144,0.032-0.292,0.068-0.527,0.137c-0.421,0.113-1.396,0.368-1.334,1.17
	c-0.014,0-0.035,0-0.045,0h-0.38c-0.681,0-1.346,0.011-1.977,0.137c-0.644,0.128-1.244,0.396-1.767,0.628
	c-0.256,0.114-0.499,0.224-0.733,0.312L97.208,108c-0.679,0.23-1.524,0.519-1.854,1.357l0.448,0.649
	c-1.279,0.343-2.468,0.797-3.629,1.241c-1.597,0.61-3.245,1.236-5.09,1.562c-0.901,0.155-1.619,0.018-2.315-0.112
	c-0.308-0.057-0.608-0.116-0.911-0.146c-0.257-0.029-0.523-0.039-0.787-0.039l-0.843,0.009c-0.186,0-0.374,0-0.553-0.018
	c-0.66-0.065-1.332-0.164-2.002-0.269c-1.07-0.164-2.178-0.337-3.294-0.34l-2.297-0.016c-1.26,0-2.61,0.029-3.93,0.235
	c-1.635,0.25-3.338,0.983-4.976,1.685c-2.252,0.963-3.951,2.17-5.039,3.584c-0.009,0-0.018,0-0.025,0
	c-0.895,0-1.435-0.269-2.061-0.576c-0.544-0.269-1.163-0.578-2.011-0.649c-1.578-0.103-4.18,0.895-7.46,2.482
	c-2.077,0.61-3.618,0.629-4.889,0.095c-0.025-0.014-0.094-0.079-0.135-0.118c-0.139-0.13-0.326-0.305-0.574-0.408
	c-0.193-0.082-0.491-0.155-0.819-0.235c-0.273-0.066-0.574-0.141-0.858-0.241l-0.51-0.188c-0.44-0.166-0.879-0.325-1.232-0.389
	c-1.405-0.287-2.555,0.182-3.341,0.501l-0.309,0.121c-0.23,0.093-0.483,0.159-0.737,0.23c-0.379,0.105-0.77,0.214-1.141,0.374
	l-0.292,0.118c-0.544,0.216-1.216,0.485-1.519,1.193l0.665,0.974c0.082,0,0.164-0.007,0.246-0.018
	c-0.375,0.3-0.726,0.601-1.059,0.888l0.64,1.207c0.36-0.094,0.775-0.223,1.228-0.374c1.063-0.346,2.345-0.76,3.622-0.883
	c-0.037,0.045-0.061,0.075-0.064,0.087c-0.193,0.036-0.516,0.093-0.774,0.414l0.262,1.084c0.194,0.086,0.374,0.096,0.57,0.111
	c0.168,0.03,0.325,0.053,0.496,0.066c0.185,0.009,0.356,0.061,0.567,0.116c0.011,0,0.023,0.007,0.032,0.007l-0.176,0.678
	c0.834,0.773,2.059,0.936,3.277,1.047l-0.052,1.084c0.348,0.112,0.726,0.128,1.051,0.128l0.656-0.006
	c0.555,0,0.674,0.07,0.697,0.093l0.747,0.278l0.874-0.205c1.054-0.255,2.143-0.514,3.199-0.933c0.667-0.262,1.248-0.613,1.812-0.952
	c0.508-0.306,0.993-0.592,1.458-0.767c0.226-0.08,0.444-0.126,0.654-0.171c0.476-0.105,1.018-0.219,1.507-0.656
	c0.428-0.38,0.71-0.872,0.981-1.357c0.287-0.503,0.556-0.984,0.881-1.095c0.494-0.176,1.373-0.054,2.175,0.093
	c0.142,0.023,0.282,0.048,0.424,0.073c-0.747,3.504,0.007,7.15,1.999,9.477c0.321,0.369,0.761,0.684,1.184,0.979
	c0.558,0.391,1.186,0.843,1.186,1.22c-0.005,0.33-0.544,1.045-4.133,2.09c-0.282,0.084-0.576,0.152-0.849,0.214
	c-0.827,0.191-1.603,0.379-2.127,0.893c-0.528,0.524-0.772,1.107-0.722,1.726c0.101,1.28,1.396,2.223,2.443,2.983
	c0.219,0.159,0.419,0.3,0.583,0.435c0.649,0.531,1.2,0.89,1.651,1.171c0.416,0.262,0.813,0.414,1.195,0.56
	c0.237,0.084,0.474,0.177,0.724,0.303c0.884,0.43,1.501,1.204,2.155,2.022c0.337,0.423,0.68,0.851,1.081,1.266
	c0.05,0.798,0.578,1.298,0.977,1.676c0.198,0.187,0.382,0.365,0.469,0.538c0.164,0.314,0.406,1.371,0.412,1.543
	c-0.041,0.032-0.205,0.087-0.312,0.123c-0.198,0.066-0.446,0.148-0.697,0.3c-0.56,0.351-0.913,0.824-1.198,1.195l-0.134,0.18
	l0.054,0.919c0.206,0.205,0.483,0.703,0.749,1.189c0.64,1.152,1.303,2.348,2.346,2.348c0.995-0.018,1.589-1.195,2.106-2.523
	l0.066-0.171c0.264-0.661,0.287-0.715,0.599-1.134l0.115-0.61c-0.066-0.235-0.005-0.476,0.093-0.856
	c0.103-0.38,0.221-0.812,0.158-1.321c-0.037-0.307-0.173-0.599-0.302-0.874c-0.063-0.146-0.137-0.294-0.179-0.442
	c-0.253-0.824-0.294-1.444-0.15-2.2l-0.071-0.469c-0.134-0.247-0.298-0.451-0.485-0.633c0.256,0.018,0.521,0.032,0.786,0.041
	c0.385,0.014,0.777,0.032,1.173,0.069c1.332,0.134,2.675,0.683,3.98,1.211c0.731,0.3,1.428,0.583,2.104,0.788
	c0.269,0.624,0.727,1.002,1.104,1.317c0.24,0.196,0.446,0.366,0.59,0.569c-0.426,0.693-0.702,1.571-0.845,2.669l0.103,0.466
	c0.209,0.325,0.378,0.69,0.548,1.05c0.467,0.982,0.996,2.095,2.177,2.567l0.934-0.458c0.152-0.531,0.394-1,0.647-1.494
	c0.46-0.889,0.977-1.899,0.966-3.345l-0.235-0.524c-0.706-0.621-0.966-1.391-0.816-2.418c0.005-0.079,0.063-0.18,0.13-0.287
	c0.137-0.244,0.346-0.613,0.255-1.1c-0.107-0.569-0.517-0.877-0.765-1.053c-0.057-0.043-0.164-0.146-0.157-0.091l-0.514-0.574
	c-0.62-0.162-1.253-0.309-1.884-0.467c-2.89-0.69-5.626-1.341-7.285-3.149c0.556-1.107,1.526-1.911,2.542-2.754
	c0.628-0.521,1.277-1.058,1.835-1.685c1.228-1.36,2.281-3.006,3.313-5.16c0.922-0.808,2.849-0.479,4.39,0.003
	c0.374,0.116,0.792,0.325,1.239,0.555c0.396,0.2,0.813,0.414,1.239,0.578c3.261,1.287,6.517,2.407,10.695,2.284
	c0.107,0.854-0.189,1.585-0.542,2.475c-0.138,0.342-0.278,0.697-0.401,1.068c-0.114,0.353-0.214,0.718-0.314,1.075
	c-0.203,0.751-0.398,1.46-0.72,1.952c-0.417,0.633-0.957,1.202-1.473,1.749c-0.358,0.378-0.694,0.742-0.993,1.116
	c-0.286-0.014-0.58-0.025-0.872-0.025c-1.118,0-1.956,0.134-2.628,0.428l-0.428,0.626c-0.032,1.062,0.402,2.136,1.104,2.869
	c-0.913,0.856-1.699,1.849-2.464,2.819c-0.831,1.049-1.614,2.041-2.531,2.844c-0.305,0.269-0.686,0.461-1.087,0.676
	c-0.505,0.255-1.074,0.555-1.575,1.033l-0.212,0.529c0.027,0.928-0.321,1.52-0.799,2.065c-0.091-0.025-0.194-0.042-0.312-0.042
	l-0.33,0.042l-0.439,0.313c-0.055,0.089-0.126,0.121-0.463,0.189c-0.378,0.075-0.941,0.192-1.339,0.743
	c-0.64,0.897-0.446,2.664-0.189,4.399l0.071,0.523l0.792,0.615c1.635-0.228,3.019-1.411,3.673-3.126
	c0.232-0.112,0.47-0.244,0.672-0.451l0.194-0.399c0.037-0.303,0.084-0.683,0.155-0.801c0.285-0.355,0.697-0.651,1.141-0.958
	c0.605-0.426,1.234-0.868,1.666-1.553c0.173-0.275,0.267-0.562,0.349-0.817c0.061-0.201,0.121-0.396,0.205-0.517
	c0.296-0.413,0.797-0.936,1.254-1.418c1.106-1.167,2.42-2.214,3.691-3.234c0.526-0.419,1.038-0.833,1.539-1.247
	c0.077,0.054,0.162,0.104,0.237,0.15c0.102,0.068,0.209,0.137,0.314,0.205c0.321,1.125,1.106,2.434,3.538,1.804
	c0.549-0.142,1.195-0.342,1.897-0.551c1.5-0.455,3.188-0.97,4.411-1.071c0.737,0.276,1.418,0.276,1.958-0.006l0.173-0.135
	c0.46-0.476,0.405-0.968,0.373-1.261c-0.014-0.137-0.02-0.21,0-0.273c0.062-0.228,0.201-0.469,0.349-0.727
	c0.303-0.537,0.683-1.207,0.545-2.09c-0.08-0.499-0.385-0.904-0.652-1.259c-0.186-0.251-0.38-0.501-0.431-0.71
	c-0.131-0.529-0.095-1.23-0.056-1.967c0.025-0.565,0.056-1.139,0.016-1.686c-0.103-1.521,0.037-2.663,0.476-3.761
	c0.876-0.282,1.56-0.524,2.368-1.112c1.13-0.811,2.687-2.093,3.345-2.874c0.474-0.56,0.545-1.282,0.61-1.917
	c0.027-0.282,0.05-0.576,0.123-0.843c0.269-0.979,0.849-1.648,1.465-2.359l0.371-0.438c0.61-0.731,1.054-1.64,1.485-2.518
	c0.201-0.408,0.401-0.815,0.622-1.211c0.663-1.211,1.303-2.47,1.945-3.739c0.384-0.774,0.713-1.567,1.033-2.346
	c0.895-2.158,1.674-4.035,3.459-5.078c0.432,0.178,0.963,0.349,1.475,0.512c0.578,0.188,1.912,0.604,1.912,0.604
	c2.822-0.305,4.948,0.13,6.932,1.387c0.059,0.275,0.162,0.499,0.257,0.708l0.597,0.416c0.29,0.016,0.469,0.139,0.765,0.358
	c0.333,0.239,0.745,0.54,1.362,0.54l0.221-0.007c0.487-0.054,0.822-0.364,1.091-0.61c0.176-0.159,0.34-0.309,0.512-0.374
	c0.191-0.066,0.392-0.068,0.622-0.073c0.428-0.005,0.961-0.018,1.521-0.432l0.269-0.706c-0.075-0.376,0.026-0.722,0.144-1.13
	C142.215,113.028,142.346,112.588,142.28,112.108z M103.745,145.929l-0.062,0.23c-0.088,0.329-0.175,0.647-0.243,0.989
	c-1.116,0.287-2.416,0.414-3.53,0.319c-0.143-0.014-0.296-0.063-0.463-0.109c-0.319-0.086-0.678-0.186-1.077-0.186
	c-0.264,0-0.514,0.045-0.751,0.137c-0.178-0.155-0.349-0.341-0.529-0.542c-0.045-0.049-0.091-0.104-0.136-0.159
	c0.674-0.97,1.803-1.613,2.99-2.287c0.715-0.4,1.445-0.822,2.099-1.325C102.557,144.005,103.096,145.02,103.745,145.929z
	 M68.364,137.847c-0.257,0.212-0.544,0.392-0.826,0.567c-0.858,0.544-1.908,1.201-1.981,2.585c-0.122-0.148-0.253-0.302-0.383-0.442
	c-0.697-0.802-1.314-1.505-1.391-2.587l0.432-0.137c1.601-0.484,3.404-1.034,5.13-1.071
	C69.087,137.169,68.77,137.516,68.364,137.847z"/>
</svg>
